<svg width="1500" height="1071" viewBox="0 0 1500 1071" fill="none" xmlns="http://www.w3.org/2000/svg">
<path d="M841.726 337.525H861.389V323.133H841.726V337.525Z" fill="#4DAF4E"/>
<path opacity="0.3" d="M841.726 337.525H861.389V323.133H841.726V337.525Z" fill="black"/>
<path d="M847.252 811.79C840.962 792.444 842.808 323.133 842.808 323.133L663.377 324.373L660.508 811.79L703.274 811.015C703.274 811.015 696.02 572.833 696.823 555.38C697.625 537.926 695.418 388.468 695.418 388.468C713.18 378.337 733.354 373.206 753.797 373.623C787.099 374.626 804.954 385.66 804.954 385.66L798.984 811.418L847.252 811.79Z" fill="#4DAF4E"/>
<path opacity="0.3" d="M847.252 811.79C840.962 792.444 842.808 323.133 842.808 323.133L663.377 324.373L660.508 811.79L703.274 811.015C703.274 811.015 696.02 572.833 696.823 555.38C697.625 537.926 695.418 388.468 695.418 388.468C713.18 378.337 733.354 373.206 753.797 373.623C787.099 374.626 804.954 385.66 804.954 385.66L798.984 811.418L847.252 811.79Z" fill="black"/>
<path d="M698.233 299.755H678.569V324.374H698.233V299.755Z" fill="#2F1043"/>
<path d="M1.47623 616.008C71.9601 608.295 142.156 597.699 211.604 583.355C264.266 572.479 316.518 559.469 367.927 543.671C402.984 532.898 437.673 520.838 471.641 506.994C482.789 502.451 493.851 497.702 504.826 492.747C528.887 482.219 552.391 470.463 575.246 457.525C590.299 448.914 604.527 438.933 617.747 427.709C627.96 418.598 636.967 408.221 644.553 396.83C658.738 376.569 670.346 354.622 679.111 331.494C680.144 328.919 680.952 326.259 681.525 323.545C681.876 321.599 678.896 320.764 678.542 322.723C677.202 330.156 673.55 337.478 670.462 344.291C665.091 356.122 659.064 367.644 652.41 378.803C645.423 390.877 637.352 402.291 628.296 412.902C617.767 424.923 604.878 434.767 591.655 443.638C565.585 461.127 536.987 474.545 508.547 487.662C498.513 492.29 488.394 496.727 478.19 500.974C446.177 514.319 413.483 526.013 380.436 536.521C331.85 551.97 282.456 564.833 232.657 575.723C165.75 590.355 98.0732 601.407 30.0877 609.625C20.557 610.777 11.0198 611.874 1.47623 612.915C-0.481143 613.129 -0.502979 616.225 1.47623 616.008Z" fill="#2F1043"/>
<path d="M438.89 539.143V831.893" stroke="#2F1043" stroke-width="2.062" stroke-miterlimit="10"/>
<path d="M444.844 539.143V831.893" stroke="#2F1043" stroke-width="2.062" stroke-miterlimit="10"/>
<path d="M504.42 512.48V812.856" stroke="#2F1043" stroke-width="2.062" stroke-miterlimit="10"/>
<path d="M510.375 512.48V812.856" stroke="#2F1043" stroke-width="2.062" stroke-miterlimit="10"/>
<path d="M552.333 487.767V815.882" stroke="#2F1043" stroke-width="2.062" stroke-miterlimit="10"/>
<path d="M558.288 487.767V815.882" stroke="#2F1043" stroke-width="2.062" stroke-miterlimit="10"/>
<path d="M587.64 466.585V815.883" stroke="#2F1043" stroke-width="2.062" stroke-miterlimit="10"/>
<path d="M593.592 466.585V815.883" stroke="#2F1043" stroke-width="2.062" stroke-miterlimit="10"/>
<path d="M613.36 446.412V815.882" stroke="#2F1043" stroke-width="2.062" stroke-miterlimit="10"/>
<path d="M617.482 446.412V815.882" stroke="#2F1043" stroke-width="2.062" stroke-miterlimit="10"/>
<path d="M630.963 429.511V811.79" stroke="#2F1043" stroke-width="2.062" stroke-miterlimit="10"/>
<path d="M635.084 429.511V811.79" stroke="#2F1043" stroke-width="2.062" stroke-miterlimit="10"/>
<path d="M446.757 537.761H436.461V540.527H446.757V537.761Z" fill="#2F1043"/>
<path d="M432.096 519.687L437.881 539.145H445.481C445.481 539.145 449.751 520.225 450.565 515.39" stroke="#2F1043" stroke-width="2.062" stroke-miterlimit="10"/>
<path d="M365.303 564.283V843.534" stroke="#2F1043" stroke-width="2.062" stroke-miterlimit="10"/>
<path d="M371.257 564.283V843.534" stroke="#2F1043" stroke-width="2.062" stroke-miterlimit="10"/>
<path d="M373.169 562.899H362.873V565.665H373.169V562.899Z" fill="#2F1043"/>
<path d="M358.51 544.823L364.295 564.281H371.895C371.895 564.281 376.165 545.361 376.979 540.526" stroke="#2F1043" stroke-width="2.062" stroke-miterlimit="10"/>
<path d="M302.467 582.147V861.398" stroke="#2F1043" stroke-width="2.062" stroke-miterlimit="10"/>
<path d="M308.42 582.147V861.398" stroke="#2F1043" stroke-width="2.062" stroke-miterlimit="10"/>
<path d="M310.333 580.764H300.037V583.529H310.333V580.764Z" fill="#2F1043"/>
<path d="M295.672 562.689L301.458 582.147H309.058C309.058 582.147 313.327 563.227 314.142 558.392" stroke="#2F1043" stroke-width="2.062" stroke-miterlimit="10"/>
<path d="M195.446 605.902V885.153" stroke="#2F1043" stroke-width="2.062" stroke-miterlimit="10"/>
<path d="M201.399 605.902V885.153" stroke="#2F1043" stroke-width="2.062" stroke-miterlimit="10"/>
<path d="M203.313 604.519H193.017V607.284H203.313V604.519Z" fill="#2F1043"/>
<path d="M188.652 586.444L194.437 605.902H202.037C202.037 605.902 206.307 586.982 207.121 582.147" stroke="#2F1043" stroke-width="2.062" stroke-miterlimit="10"/>
<path d="M82.9878 628.414V907.665" stroke="#2F1043" stroke-width="2.062" stroke-miterlimit="10"/>
<path d="M88.9419 628.414V907.665" stroke="#2F1043" stroke-width="2.062" stroke-miterlimit="10"/>
<path d="M90.8544 627.032H80.5586V629.797H90.8544V627.032Z" fill="#2F1043"/>
<path d="M76.1938 608.955L81.9792 628.413H89.5793C89.5793 628.413 93.8491 609.493 94.6636 604.658" stroke="#2F1043" stroke-width="2.062" stroke-miterlimit="10"/>
<path d="M499.619 492.598L504.253 511.299H510.339C510.339 511.299 513.759 493.115 514.412 488.468" stroke="#2F1043" stroke-width="2.062" stroke-miterlimit="10"/>
<path d="M548.129 469.516L552.762 488.218H558.849C558.849 488.218 562.757 468.447 563.409 463.8" stroke="#2F1043" stroke-width="2.062" stroke-miterlimit="10"/>
<path d="M582.957 448.91L587.591 466.703H593.677C593.677 466.703 598.042 446.263 598.694 441.842" stroke="#2F1043" stroke-width="2.062" stroke-miterlimit="10"/>
<path d="M608.918 431.871L612.753 446.599H617.791C617.791 446.599 620.688 428.051 621.228 424.391" stroke="#2F1043" stroke-width="2.062" stroke-miterlimit="10"/>
<path d="M628.545 415.963L631.508 429.444H635.401C635.401 429.444 637.639 408.713 638.056 405.364" stroke="#2F1043" stroke-width="2.062" stroke-miterlimit="10"/>
<path d="M512.531 510.427H502.012V513.134H512.531V510.427Z" fill="#2F1043"/>
<path d="M560.784 487.114H550.265V489.821H560.784V487.114Z" fill="#2F1043"/>
<path d="M596.088 465.931H585.568V468.638H596.088V465.931Z" fill="#2F1043"/>
<path d="M619.281 445.757H611.285V448.464H619.281V445.757Z" fill="#2F1043"/>
<path d="M637.3 428.654H629.304V431.361H637.3V428.654Z" fill="#2F1043"/>
<path d="M650.052 408.215V800.722" stroke="#2F1043" stroke-width="2.062" stroke-miterlimit="10"/>
<path d="M654.173 408.215V800.722" stroke="#2F1043" stroke-width="2.062" stroke-miterlimit="10"/>
<path d="M646.886 391.662L650.361 407.472H654.254C654.254 407.472 656.492 380.333 656.909 376.983" stroke="#2F1043" stroke-width="2.062" stroke-miterlimit="10"/>
<path d="M656.075 406.86H648.08V409.567H656.075V406.86Z" fill="#2F1043"/>
<path d="M673.895 381.268V800.72" stroke="#2F1043" stroke-width="2.062" stroke-miterlimit="10"/>
<path d="M678.017 381.268V800.72" stroke="#2F1043" stroke-width="2.062" stroke-miterlimit="10"/>
<path d="M667.537 356.888L674.204 380.475H678.097C678.097 380.475 679.501 331.605 679.918 328.025" stroke="#2F1043" stroke-width="2.062" stroke-miterlimit="10"/>
<path d="M679.918 379.821H671.922V382.714H679.918V379.821Z" fill="#2F1043"/>
<path d="M667.537 324.333H647.874V338.724H667.537V324.333Z" fill="#4DAF4E"/>
<path opacity="0.3" d="M667.537 324.333H647.874V338.724H667.537V324.333Z" fill="black"/>
<path d="M685.654 281.001H682.395V301.141H685.654V281.001Z" fill="#2F1043"/>
<path d="M817.388 323.371H837.052V298.752H817.388V323.371Z" fill="#2F1043"/>
<path d="M1498.15 611.913C1428.96 604.539 1360.19 593.702 1292.08 579.442C1241.78 568.902 1192.05 555.792 1143.09 540.165C1109.88 529.467 1077.11 517.41 1045.02 503.701C1034.34 499.135 1023.73 494.404 1013.19 489.507C990.351 478.95 967.438 468.402 945.56 455.941C930.065 447.32 915.399 437.285 901.749 425.965C891.18 416.812 881.864 406.304 874.045 394.712C859.844 374.553 848.23 352.689 839.478 329.635C838.451 327.071 837.647 324.423 837.077 321.72C836.724 319.764 833.743 320.593 834.094 322.542C835.43 329.957 839.07 337.256 842.133 344.066C847.418 355.785 853.346 367.203 859.89 378.268C866.83 390.306 874.79 401.727 883.683 412.403C893.82 423.817 905.381 433.882 918.082 442.35C945.067 461.177 975.034 475.135 1004.76 488.989C1014.43 493.493 1024.12 497.936 1033.88 502.221C1064.14 515.503 1094.97 527.397 1126.34 537.902C1173.38 553.608 1221.19 566.885 1269.6 577.679C1335.45 592.355 1402.01 603.692 1469.01 611.645C1478.71 612.825 1488.43 613.945 1498.15 615.006C1500.13 615.222 1500.11 612.127 1498.15 611.913Z" fill="#2F1043"/>
<path d="M1076.73 538.143V830.893" stroke="#2F1043" stroke-width="2.062" stroke-miterlimit="10"/>
<path d="M1070.78 538.143V830.893" stroke="#2F1043" stroke-width="2.062" stroke-miterlimit="10"/>
<path d="M1011.2 511.478V811.854" stroke="#2F1043" stroke-width="2.062" stroke-miterlimit="10"/>
<path d="M1005.25 511.478V811.854" stroke="#2F1043" stroke-width="2.062" stroke-miterlimit="10"/>
<path d="M963.287 486.766V814.881" stroke="#2F1043" stroke-width="2.062" stroke-miterlimit="10"/>
<path d="M957.333 486.766V814.881" stroke="#2F1043" stroke-width="2.062" stroke-miterlimit="10"/>
<path d="M927.982 465.582V814.88" stroke="#2F1043" stroke-width="2.062" stroke-miterlimit="10"/>
<path d="M922.03 465.582V814.88" stroke="#2F1043" stroke-width="2.062" stroke-miterlimit="10"/>
<path d="M902.26 445.409V814.879" stroke="#2F1043" stroke-width="2.062" stroke-miterlimit="10"/>
<path d="M898.138 445.409V814.879" stroke="#2F1043" stroke-width="2.062" stroke-miterlimit="10"/>
<path d="M884.659 428.51V810.789" stroke="#2F1043" stroke-width="2.062" stroke-miterlimit="10"/>
<path d="M880.538 428.51V810.789" stroke="#2F1043" stroke-width="2.062" stroke-miterlimit="10"/>
<path d="M1068.86 539.526H1079.16V536.761H1068.86V539.526Z" fill="#2F1043"/>
<path d="M1083.52 518.685L1077.74 538.143H1070.14C1070.14 538.143 1065.87 519.223 1065.05 514.388" stroke="#2F1043" stroke-width="2.062" stroke-miterlimit="10"/>
<path d="M1150.32 563.28V842.531" stroke="#2F1043" stroke-width="2.062" stroke-miterlimit="10"/>
<path d="M1144.36 563.28V842.531" stroke="#2F1043" stroke-width="2.062" stroke-miterlimit="10"/>
<path d="M1142.45 564.663H1152.75V561.898H1142.45V564.663Z" fill="#2F1043"/>
<path d="M1157.11 543.823L1151.33 563.281H1143.73C1143.73 563.281 1139.46 544.361 1138.64 539.526" stroke="#2F1043" stroke-width="2.062" stroke-miterlimit="10"/>
<path d="M1213.15 581.147V860.398" stroke="#2F1043" stroke-width="2.062" stroke-miterlimit="10"/>
<path d="M1207.2 581.147V860.398" stroke="#2F1043" stroke-width="2.062" stroke-miterlimit="10"/>
<path d="M1205.29 582.529H1215.58V579.763H1205.29V582.529Z" fill="#2F1043"/>
<path d="M1219.95 561.688L1214.16 581.146H1206.56C1206.56 581.146 1202.29 562.226 1201.48 557.391" stroke="#2F1043" stroke-width="2.062" stroke-miterlimit="10"/>
<path d="M1320.17 604.9V884.151" stroke="#2F1043" stroke-width="2.062" stroke-miterlimit="10"/>
<path d="M1314.22 604.9V884.151" stroke="#2F1043" stroke-width="2.062" stroke-miterlimit="10"/>
<path d="M1312.31 606.283H1322.6V603.518H1312.31V606.283Z" fill="#2F1043"/>
<path d="M1326.97 585.444L1321.18 604.902H1313.58C1313.58 604.902 1309.31 585.982 1308.5 581.147" stroke="#2F1043" stroke-width="2.062" stroke-miterlimit="10"/>
<path d="M1432.63 627.413V906.664" stroke="#2F1043" stroke-width="2.062" stroke-miterlimit="10"/>
<path d="M1426.68 627.413V906.664" stroke="#2F1043" stroke-width="2.062" stroke-miterlimit="10"/>
<path d="M1424.77 628.796H1435.06V626.031H1424.77V628.796Z" fill="#2F1043"/>
<path d="M1439.43 607.955L1433.64 627.413H1426.04C1426.04 627.413 1421.77 608.493 1420.96 603.658" stroke="#2F1043" stroke-width="2.062" stroke-miterlimit="10"/>
<path d="M1016 491.595L1011.37 510.296H1005.28C1005.28 510.296 1001.86 492.112 1001.21 487.465" stroke="#2F1043" stroke-width="2.062" stroke-miterlimit="10"/>
<path d="M967.493 468.515L962.86 487.217H956.773C956.773 487.217 952.864 467.446 952.212 462.799" stroke="#2F1043" stroke-width="2.062" stroke-miterlimit="10"/>
<path d="M932.663 447.908L928.029 465.701H921.942C921.942 465.701 917.578 445.261 916.926 440.84" stroke="#2F1043" stroke-width="2.062" stroke-miterlimit="10"/>
<path d="M906.704 430.87L902.869 445.598H897.831C897.831 445.598 894.934 427.049 894.394 423.39" stroke="#2F1043" stroke-width="2.062" stroke-miterlimit="10"/>
<path d="M887.075 414.962L884.112 428.443H880.219C880.219 428.443 877.981 407.712 877.563 404.363" stroke="#2F1043" stroke-width="2.062" stroke-miterlimit="10"/>
<path d="M1003.09 512.132H1013.61V509.425H1003.09V512.132Z" fill="#2F1043"/>
<path d="M954.836 488.821H965.355V486.114H954.836V488.821Z" fill="#2F1043"/>
<path d="M919.533 467.636H930.052V464.929H919.533V467.636Z" fill="#2F1043"/>
<path d="M896.339 447.463H904.334V444.756H896.339V447.463Z" fill="#2F1043"/>
<path d="M878.321 430.359H886.316V427.652H878.321V430.359Z" fill="#2F1043"/>
<path d="M865.571 407.211V799.718" stroke="#2F1043" stroke-width="2.062" stroke-miterlimit="10"/>
<path d="M861.447 407.211V799.718" stroke="#2F1043" stroke-width="2.062" stroke-miterlimit="10"/>
<path d="M868.736 390.658L865.26 406.469H861.367C861.367 406.469 859.129 379.33 858.712 375.98" stroke="#2F1043" stroke-width="2.062" stroke-miterlimit="10"/>
<path d="M859.545 408.565H867.541V405.858H859.545V408.565Z" fill="#2F1043"/>
<path d="M841.725 380.268V799.72" stroke="#2F1043" stroke-width="2.062" stroke-miterlimit="10"/>
<path d="M837.603 380.268V799.72" stroke="#2F1043" stroke-width="2.062" stroke-miterlimit="10"/>
<path d="M848.082 355.884L841.416 379.471H837.523C837.523 379.471 836.119 330.601 835.701 327.021" stroke="#2F1043" stroke-width="2.062" stroke-miterlimit="10"/>
<path d="M835.701 381.712H843.697V378.819H835.701V381.712Z" fill="#2F1043"/>
<path d="M829.967 300.141H833.226V280.001H829.967V300.141Z" fill="#2F1043"/>
<path d="M805.432 314.275H706.54V324.373H805.432V314.275Z" fill="#4DAF4E"/>
<path opacity="0.3" d="M805.432 314.275H706.54V324.373H805.432V314.275Z" fill="black"/>
<path d="M718.78 288.083H716.519V314.274H718.78V288.083Z" fill="#4DAF4E"/>
<path d="M704.418 789.734C704.418 789.734 2.16255 817.3 0.109375 817.239V829.509L704.434 792.408L704.418 789.734Z" fill="#2F1043"/>
<path d="M1.47559 876.114L704.417 795.508V809.622L1.47559 989.101V876.114Z" fill="#2F1043"/>
<path d="M30.2585 822.942H3.63525V888.958H30.2585V822.942Z" fill="#2F1043"/>
<path d="M91.0601 819.072H66.981V885.089H91.0601V819.072Z" fill="#2F1043"/>
<path d="M148.427 817.121H124.348V883.138H148.427V817.121Z" fill="#2F1043"/>
<path d="M205.793 815.169H181.714V881.186H205.793V815.169Z" fill="#2F1043"/>
<path d="M263.159 813.217H239.08V879.234H263.159V813.217Z" fill="#2F1043"/>
<path d="M314.646 811.266H296.447V877.283H314.646V811.266Z" fill="#2F1043"/>
<path d="M367.744 809.315H348.423V875.332H367.744V809.315Z" fill="#2F1043"/>
<path d="M417.305 804.634H397.983V870.65H417.305V804.634Z" fill="#2F1043"/>
<path d="M466.868 799.951H447.546V865.967H466.868V799.951Z" fill="#2F1043"/>
<path d="M510.374 799.951H497.107V852.115H510.374V799.951Z" fill="#2F1043"/>
<path d="M551.019 796.711H537.752V842.325H551.019V796.711Z" fill="#2F1043"/>
<path d="M587.268 795.832H574.001V831.893H587.268V795.832Z" fill="#2F1043"/>
<path d="M623.477 794.507H610.21V830.568H623.477V794.507Z" fill="#2F1043"/>
<path d="M659.687 793.761H646.42V818.447H659.687V793.761Z" fill="#2F1043"/>
<path d="M695.899 791.853H682.632V807.251H695.899V791.853Z" fill="#2F1043"/>
<path d="M797.262 789.734C797.262 789.734 1483.29 817.3 1485.29 817.239V829.509L797.246 792.408L797.262 789.734Z" fill="#2F1043"/>
<path d="M1483.96 876.114L797.261 795.508V809.622L1483.96 989.101V876.114Z" fill="#2F1043"/>
<path d="M1455.84 888.96H1481.85V822.943H1455.84V888.96Z" fill="#2F1043"/>
<path d="M1396.45 885.088H1419.97V819.071H1396.45V885.088Z" fill="#2F1043"/>
<path d="M1340.4 883.136H1363.93V817.12H1340.4V883.136Z" fill="#2F1043"/>
<path d="M1284.36 881.185H1307.89V815.169H1284.36V881.185Z" fill="#2F1043"/>
<path d="M1228.32 879.234H1251.84V813.218H1228.32V879.234Z" fill="#2F1043"/>
<path d="M1178.03 877.283H1195.8V811.267H1178.03V877.283Z" fill="#2F1043"/>
<path d="M1126.15 875.332H1145.03V809.316H1126.15V875.332Z" fill="#2F1043"/>
<path d="M1077.74 870.65H1096.61V804.633H1077.74V870.65Z" fill="#2F1043"/>
<path d="M1029.32 865.966H1048.2V799.949H1029.32V865.966Z" fill="#2F1043"/>
<path d="M986.82 852.114H999.78V799.95H986.82V852.114Z" fill="#2F1043"/>
<path d="M943.227 842.323H956.187V796.709H943.227V842.323Z" fill="#2F1043"/>
<path d="M911.705 831.894H924.666V795.833H911.705V831.894Z" fill="#2F1043"/>
<path d="M878.916 823.856H891.876V794.791H878.916V823.856Z" fill="#2F1043"/>
<path d="M841.867 816.034H854.827V792.392H841.867V816.034Z" fill="#2F1043"/>
<path d="M810.909 810.537H823.869V791.394H810.909V810.537Z" fill="#2F1043"/>
<path d="M1.38916 989.101C5.262 989.101 705.124 808.222 705.124 808.222H808.405L1483.96 989.101L1485.29 1071H1.47638L1.38916 989.101Z" fill="#2F1043"/>
<path opacity="0.5" d="M1.38916 989.101C5.262 989.101 705.124 808.222 705.124 808.222H808.405L1483.96 989.101L1485.29 1071H1.47638L1.38916 989.101Z" fill="white"/>
<path d="M739.977 859.066H750.313L749.144 837.182H741.869L739.977 859.066Z" fill="white"/>
<path d="M753.693 922.312L751.606 883.241H737.884L734.502 922.312H753.693Z" fill="white"/>
<path d="M731.629 955.504L721.031 1025.67H763.308L755.466 955.504H731.629Z" fill="white"/>
<path d="M748.734 829.51L747.598 808.222H744.377L742.533 829.51H748.734Z" fill="white"/>
<path d="M704.417 809.621L1.38916 1014.24V1022.19L707.797 809.621" fill="white"/>
<path d="M804.737 809.621L1483.59 1006.12L1483.96 1018.47L801.359 809.621" fill="white"/>
<path d="M841.356 80.9517C839.905 79.8918 838.18 79.2722 836.386 79.1669C834.592 79.0617 832.806 79.4754 831.241 80.3585C829.027 76.2921 825.33 73.2356 820.92 71.8242C816.51 70.4128 811.726 70.7552 807.561 72.7801C806.488 68.2721 803.913 64.2635 800.259 61.4132C796.606 58.5629 792.091 57.0404 787.457 57.0962C782.824 57.152 778.347 58.7826 774.763 61.72C771.179 64.6574 768.701 68.7268 767.737 73.2593C767.616 74.7197 767.087 76.1169 766.211 77.2919C764.554 78.9853 761.786 78.4169 759.423 78.2326C755.687 78.0359 751.993 79.0914 748.925 81.2317C745.858 83.3721 743.592 86.475 742.487 90.0487L844.86 89.6759C845.246 88.0379 845.117 86.3206 844.49 84.7589C843.863 83.1972 842.768 81.8674 841.356 80.9517Z" fill="#E0E0E0"/>
<path d="M1141.13 195.847C1139.68 194.787 1137.96 194.167 1136.16 194.062C1134.37 193.957 1132.58 194.371 1131.02 195.254C1128.81 191.187 1125.11 188.131 1120.7 186.719C1116.29 185.308 1111.5 185.65 1107.34 187.676C1106.27 183.168 1103.69 179.159 1100.04 176.309C1096.38 173.458 1091.87 171.936 1087.24 171.992C1082.6 172.047 1078.13 173.678 1074.54 176.615C1070.96 179.553 1068.48 183.622 1067.51 188.155C1067.39 189.615 1066.87 191.012 1065.99 192.187C1064.33 193.881 1061.56 193.312 1059.2 193.128C1055.47 192.931 1051.77 193.987 1048.7 196.127C1045.64 198.267 1043.37 201.37 1042.27 204.944L1144.64 204.571C1145.02 202.933 1144.9 201.216 1144.27 199.654C1143.64 198.092 1142.55 196.763 1141.13 195.847Z" fill="#F0F0F0"/>
<path d="M1103.11 39.2761C1100.72 37.5312 1097.88 36.5111 1094.93 36.3379C1091.98 36.1646 1089.04 36.8456 1086.46 38.2992C1079.71 24.6556 1060.9 18.6345 1047.48 25.8233C1045.71 18.4017 1041.47 11.8023 1035.45 7.10968C1029.44 2.4171 1022.01 -0.089321 1014.38 0.00243245C1006.75 0.0941859 999.38 2.77865 993.479 7.61455C987.579 12.4504 983.499 19.15 981.911 26.6119C981.712 29.016 980.842 31.316 979.401 33.2504C976.671 36.0388 972.113 35.1026 968.224 34.7993C962.074 34.4756 955.992 36.2133 950.942 39.7371C945.892 43.2609 942.162 48.3692 940.343 54.2527L1108.88 53.6395C1110.36 47.9328 1107.82 42.8292 1103.11 39.2761Z" fill="#F5F5F5"/>
<path d="M1456.39 104.292C1454.61 102.991 1452.49 102.231 1450.29 102.102C1448.09 101.973 1445.89 102.48 1443.97 103.564C1441.26 98.5732 1436.72 94.8218 1431.31 93.0896C1425.89 91.3574 1420.02 91.7777 1414.91 94.2631C1413.59 88.7303 1410.43 83.8103 1405.95 80.312C1401.46 76.8137 1395.92 74.9451 1390.24 75.0135C1384.55 75.082 1379.05 77.0833 1374.65 80.6885C1370.26 84.2937 1367.21 89.2882 1366.03 94.8511C1365.88 96.6434 1365.23 98.3581 1364.16 99.8002C1362.12 101.879 1358.73 101.181 1355.83 100.955C1351.24 100.714 1346.71 102.009 1342.94 104.636C1339.18 107.263 1336.4 111.071 1335.04 115.457L1460.69 115C1461.16 112.99 1461 110.882 1460.23 108.965C1459.46 107.048 1458.12 105.416 1456.39 104.292Z" fill="#F5F5F5"/>
<path d="M517.398 70.6806C514.749 68.7456 511.599 67.6145 508.325 67.4224C505.05 67.2304 501.789 67.9855 498.932 69.5975C491.445 54.4678 470.581 47.7909 455.701 55.7626C453.742 47.5328 449.04 40.2146 442.37 35.0109C435.7 29.8073 427.458 27.0279 418.999 27.1297C410.539 27.2314 402.366 30.2082 395.823 35.5708C389.28 40.9334 384.756 48.3626 382.995 56.6371C382.774 59.3032 381.809 61.8537 380.211 63.9987C377.183 67.0909 372.13 66.0526 367.816 65.7164C360.997 65.3574 354.253 67.2844 348.652 71.1919C343.052 75.0994 338.915 80.764 336.898 87.2882L523.794 86.6085C525.431 80.2804 522.613 74.6208 517.398 70.6806Z" fill="#F5F5F5"/>
<path d="M423.231 212.325C421.78 211.265 420.055 210.646 418.261 210.541C416.467 210.436 414.681 210.849 413.116 211.732C410.902 207.666 407.205 204.609 402.795 203.198C398.385 201.786 393.601 202.129 389.437 204.154C388.363 199.646 385.788 195.637 382.134 192.787C378.481 189.937 373.966 188.414 369.333 188.47C364.699 188.526 360.222 190.157 356.638 193.094C353.054 196.031 350.576 200.101 349.612 204.633C349.491 206.093 348.962 207.49 348.087 208.665C346.429 210.359 343.66 209.79 341.298 209.606C337.562 209.41 333.868 210.465 330.8 212.605C327.733 214.746 325.467 217.849 324.362 221.422L426.735 221.05C427.121 219.412 426.992 217.695 426.365 216.133C425.738 214.571 424.643 213.241 423.231 212.325Z" fill="#F0F0F0"/>
<path d="M177.821 171.785C175.666 170.211 173.104 169.291 170.44 169.134C167.777 168.978 165.124 169.592 162.801 170.904C159.512 164.865 154.022 160.326 147.473 158.23C140.924 156.134 133.819 156.643 127.636 159.65C126.042 152.956 122.218 147.003 116.792 142.77C111.366 138.538 104.662 136.277 97.781 136.36C90.9001 136.442 84.2522 138.864 78.9299 143.226C73.6077 147.588 69.9279 153.631 68.4954 160.362C68.3159 162.53 67.5312 164.605 66.2306 166.35C63.7686 168.865 59.6581 168.02 56.1493 167.747C50.6022 167.455 45.1164 169.022 40.5609 172.201C36.0053 175.379 32.6407 179.987 31 185.294L183.023 184.741C183.597 182.308 183.406 179.758 182.474 177.439C181.543 175.119 179.918 173.145 177.821 171.785Z" fill="#F0F0F0"/>
</svg>
