<svg width="309" height="183" viewBox="0 0 309 183" fill="none" xmlns="http://www.w3.org/2000/svg">
<path d="M302.656 78.8639L189.736 6.01111C183.583 2.0412 176.315 0.0175091 169 0.237421L34.6737 4.24893C23.3384 4.58653 19.4514 18.547 28.9811 24.6941L48.6675 37.3948C42.2918 41.9933 37.3754 48.3995 34.8872 56.2211C29.9302 57.5083 25.6817 61.1383 24.1971 66.4704C22.8511 71.3048 24.2358 76.0732 27.1368 79.6836L1.47793 128.052C-0.753332 132.258 1.43112 137.447 5.96486 138.71L30.8317 145.633C35.3699 146.897 39.9218 143.583 40.1854 138.829L43.2154 84.1604C47.5648 82.5687 51.2146 79.2021 52.5607 74.3678C54.0054 69.1791 52.3467 64.0397 48.9756 60.3853C51.1879 53.7433 56.2497 48.7355 62.73 46.4711L141.9 97.5513C145.568 99.916 152.837 103.617 162.636 103.325L296.963 99.3135C308.303 98.9727 312.189 85.0167 302.656 78.8639ZM162.983 118.203C149.245 118.611 139.075 113.441 133.914 110.11L75.2069 72.2361L54.7554 121.368C50.3415 137.221 84.8599 160.677 131.855 173.762C178.85 186.846 220.523 184.605 224.937 168.752L232.821 116.116L162.983 118.203Z" fill="#43056C"/>
</svg>
