<svg width="518" height="387" viewBox="0 0 518 387" fill="none" xmlns="http://www.w3.org/2000/svg">
<path d="M73.879 189.462L224.014 39.3265" stroke="#CC0000" stroke-width="69.375" stroke-miterlimit="10" stroke-linecap="round"/>
<path d="M216.53 184.823L366.665 34.6875" stroke="#CC0000" stroke-width="69.375" stroke-miterlimit="10" stroke-linecap="round"/>
<path d="M365.928 190.481V38.2812" stroke="#CC0000" stroke-width="69.375" stroke-miterlimit="10" stroke-linecap="round"/>
<circle cx="453.537" cy="190.481" r="34.6875" fill="#333399"/>
<path d="M0.835294 351.384L8.53964 284.498H21.0249L39.651 346L58.1755 284.498H70.6607L78.648 352.247C78.7819 353.383 78.6737 354.535 78.3306 355.626C77.9874 356.717 77.417 357.723 76.6569 358.578C75.8969 359.433 74.9644 360.117 73.9208 360.586C72.8773 361.055 71.7463 361.297 70.6024 361.297H67.2297L60.1548 300.94L62.2356 301.148L46.6587 357.414C46.3497 358.53 45.6833 359.514 44.7615 360.216C43.8397 360.917 42.7134 361.297 41.5552 361.297H37.5256C36.3703 361.297 35.2466 360.919 34.326 360.221C33.4054 359.523 32.7383 358.543 32.4266 357.43L16.655 301.148L18.8375 301.044L12.0771 361.297H9.67194C8.41793 361.297 7.17809 361.032 6.03376 360.519C4.88943 360.006 3.86648 359.257 3.03203 358.321C2.19758 357.385 1.57049 356.283 1.1919 355.087C0.813311 353.892 0.691785 352.63 0.835294 351.384Z" fill="black"/>
<path d="M117.804 361.816C112.878 362.021 107.964 361.17 103.393 359.319C101.589 358.458 99.9739 357.247 98.6429 355.755C97.3119 354.263 96.2913 352.521 95.6407 350.63C93.8285 345.077 93.0175 339.245 93.2453 333.408C93.0188 327.51 93.7927 321.616 95.5343 315.977C96.1504 314.092 97.141 312.35 98.4465 310.857C99.7521 309.364 101.346 308.15 103.132 307.288C107.684 305.434 112.583 304.582 117.495 304.791C121.835 304.657 126.17 305.201 130.343 306.402C133.361 307.31 135.904 309.365 137.423 312.127C139.098 315.756 139.866 319.738 139.658 323.729C139.803 326.698 139.08 329.645 137.577 332.21C136.154 334.355 134.043 335.952 131.591 336.737C128.618 337.696 125.506 338.153 122.382 338.09H106.045C106.069 340.905 106.543 343.697 107.448 346.363C107.831 347.363 108.417 348.273 109.17 349.035C109.923 349.796 110.827 350.392 111.823 350.786C114.812 351.828 117.972 352.287 121.134 352.138H137.994V353.021C138.001 354.924 137.322 356.766 136.082 358.209C134.842 359.653 133.123 360.601 131.241 360.881C130.501 360.989 129.751 361.093 128.993 361.193C125.28 361.641 121.543 361.849 117.804 361.816ZM105.943 330.286H121.134C123.028 330.438 124.919 329.942 126.495 328.881C127.142 328.201 127.632 327.387 127.928 326.496C128.225 325.606 128.323 324.661 128.213 323.729C128.304 321.767 127.947 319.81 127.168 318.007C126.459 316.605 125.226 315.539 123.737 315.04C121.723 314.388 119.611 314.089 117.494 314.155C115.128 314.041 112.769 314.505 110.623 315.507C109.735 316.038 108.96 316.738 108.344 317.569C107.728 318.399 107.282 319.343 107.032 320.347C106.196 323.591 105.829 326.938 105.943 330.286Z" fill="black"/>
<path d="M175.139 361.297C171.75 361.42 168.375 360.798 165.253 359.475C162.674 358.25 160.677 356.065 159.688 353.387C158.424 349.782 157.875 345.965 158.072 342.15L158.488 315.926H149.748V307.601L158.904 305.52L160.776 289.911H170.871V305.52H185.026V315.927H170.871V342.046C170.832 343.537 171.008 345.026 171.394 346.467C171.663 347.481 172.182 348.412 172.904 349.174C173.502 349.794 174.231 350.274 175.038 350.578C175.807 350.858 176.612 351.033 177.428 351.098L184.402 351.827V353.442C184.402 355.525 183.574 357.523 182.101 358.996C180.628 360.469 178.63 361.297 176.547 361.297H175.139Z" fill="black"/>
<path d="M209.793 361.921C206.031 362.07 202.363 360.723 199.592 358.175C198.245 356.833 197.196 355.221 196.515 353.446C195.834 351.671 195.535 349.771 195.638 347.873V343.191C195.572 341.223 195.933 339.264 196.696 337.45C197.46 335.635 198.608 334.008 200.061 332.68C203.921 329.676 208.766 328.228 213.64 328.62H229.561V323.73C229.618 322.039 229.261 320.36 228.521 318.84C227.694 317.411 226.355 316.351 224.775 315.873C222.107 315.098 219.33 314.764 216.553 314.884H199.699V313.748C199.698 311.886 200.356 310.084 201.556 308.661C202.757 307.238 204.422 306.286 206.258 305.973C207.062 305.834 207.893 305.699 208.753 305.57C212.856 305.009 216.995 304.748 221.136 304.791C225.085 304.63 229.032 305.176 232.789 306.403C235.786 307.396 238.344 309.401 240.024 312.074C241.816 315.39 242.661 319.134 242.468 322.897V361.296H238.792C236.911 361.296 235.076 360.717 233.536 359.637C231.997 358.558 230.827 357.03 230.186 355.262C229.371 355.894 228.501 356.451 227.587 356.927C226.065 357.752 224.502 358.498 222.903 359.162C220.901 360.001 218.83 360.663 216.713 361.139C214.444 361.663 212.122 361.925 209.793 361.921ZM216.036 352.867C217.068 352.853 218.096 352.731 219.104 352.504C220.251 352.262 221.414 351.984 222.593 351.671C223.769 351.359 224.861 351.047 225.869 350.735C226.875 350.422 227.708 350.127 228.366 349.849C229.024 349.573 229.426 349.399 229.561 349.329V334.761L217.492 335.385C214.969 335.407 212.528 336.288 210.572 337.882C209.854 338.604 209.293 339.467 208.926 340.416C208.559 341.366 208.393 342.382 208.438 343.399V345.688C208.369 347.171 208.751 348.64 209.532 349.903C210.202 350.932 211.189 351.717 212.343 352.138C213.531 352.565 214.775 352.81 216.036 352.867Z" fill="black"/>
<path d="M276.807 361.297C273.621 361.375 270.452 360.809 267.491 359.632C264.943 358.57 262.857 356.632 261.611 354.169C260.167 351.025 259.49 347.583 259.637 344.127V284.498H272.437V342.046C272.356 343.655 272.716 345.256 273.477 346.675C274.093 347.756 275.07 348.585 276.236 349.017C277.456 349.446 278.741 349.658 280.034 349.642H305.527V351.79C305.527 353.039 305.282 354.275 304.804 355.428C304.326 356.582 303.626 357.63 302.743 358.512C301.86 359.395 300.812 360.095 299.659 360.573C298.505 361.051 297.269 361.297 296.021 361.297L276.807 361.297Z" fill="black"/>
<path d="M341.637 361.817C337.813 361.884 333.996 361.429 330.294 360.464C327.318 359.692 324.616 358.107 322.489 355.886C320.295 353.389 318.756 350.384 318.012 347.144C316.945 342.611 316.456 337.96 316.556 333.304C316.448 328.527 316.938 323.755 318.012 319.098C318.745 315.844 320.305 312.834 322.542 310.359C324.69 308.183 327.415 306.666 330.396 305.987C334.081 305.135 337.856 304.734 341.638 304.791C345.493 304.722 349.341 305.159 353.082 306.091C356.039 306.825 358.738 308.355 360.888 310.514C363.102 312.977 364.644 315.97 365.364 319.202C366.433 323.824 366.923 328.561 366.821 333.304C366.918 338.009 366.445 342.708 365.413 347.299C364.719 350.546 363.195 353.558 360.99 356.041C358.856 358.228 356.154 359.778 353.189 360.515C349.412 361.452 345.528 361.89 341.637 361.817ZM341.637 351.514C343.491 351.547 345.342 351.355 347.149 350.943C348.643 350.583 349.978 349.742 350.948 348.55C352.13 346.92 352.899 345.026 353.189 343.033C353.735 339.785 353.978 336.493 353.915 333.2C353.978 329.958 353.735 326.718 353.189 323.522C352.893 321.547 352.124 319.672 350.948 318.058C349.977 316.867 348.643 316.027 347.149 315.665C345.342 315.253 343.491 315.061 341.637 315.092C339.816 315.064 337.998 315.257 336.222 315.665C334.741 316.02 333.422 316.863 332.477 318.058C331.328 319.687 330.564 321.555 330.241 323.522C329.654 326.713 329.393 329.956 329.462 333.2C329.392 336.496 329.653 339.79 330.241 343.033C330.558 345.018 331.322 346.905 332.477 348.55C333.421 349.746 334.741 350.589 336.222 350.943C337.998 351.352 339.816 351.543 341.637 351.514Z" fill="black"/>
<path d="M396.272 387C393.052 387.052 389.847 386.541 386.802 385.49C384.234 384.632 381.973 383.041 380.298 380.912C378.703 378.766 377.878 376.145 377.956 373.472V371.495C377.873 368.684 378.796 365.934 380.559 363.743C382.336 361.595 384.626 359.93 387.218 358.904C389.892 357.801 392.756 357.235 395.648 357.239L399.394 361.505C397.793 361.479 396.203 361.762 394.709 362.337C393.387 362.841 392.234 363.706 391.38 364.834C390.515 366.046 390.076 367.51 390.131 368.998V370.663C390.046 371.711 390.231 372.763 390.668 373.72C391.106 374.676 391.78 375.505 392.628 376.126C394.762 377.393 397.226 377.991 399.703 377.842H411.046C413.685 377.983 416.307 377.35 418.591 376.022C419.499 375.418 420.232 374.586 420.716 373.608C421.2 372.631 421.418 371.543 421.349 370.455V368.686C421.395 367.341 421.072 366.009 420.415 364.834C419.697 363.716 418.638 362.859 417.395 362.39C415.598 361.731 413.69 361.43 411.777 361.505H397.83C393.412 361.817 389.011 360.685 385.292 358.279C384.15 357.443 383.192 356.38 382.479 355.157C381.766 353.935 381.312 352.578 381.146 351.172C380.98 349.766 381.106 348.341 381.516 346.985C381.925 345.63 382.609 344.374 383.526 343.295C385.349 341.382 387.737 340.105 390.339 339.651C388.172 338.69 386.265 337.228 384.775 335.385C383.455 333.722 382.481 331.811 381.91 329.767C381.356 327.767 381.076 325.701 381.077 323.626C380.92 319.995 381.824 316.397 383.681 313.272C385.507 310.527 388.172 308.445 391.278 307.339C395.255 305.951 399.451 305.299 403.662 305.416H433.733V312.595L423.846 313.947C424.538 314.642 425.288 315.474 426.087 316.447C426.98 317.603 427.666 318.906 428.114 320.296C428.731 322.318 429.012 324.427 428.947 326.539C428.984 329.495 428.324 332.419 427.021 335.073C425.635 337.742 423.428 339.894 420.725 341.211C417.043 342.899 413.012 343.684 408.966 343.503H399.495C397.636 343.429 395.784 343.785 394.085 344.543C393.422 344.855 392.87 345.36 392.498 345.991C392.127 346.622 391.955 347.35 392.004 348.081C391.957 348.677 392.091 349.274 392.388 349.794C392.685 350.313 393.131 350.732 393.669 350.994C394.766 351.547 395.978 351.832 397.206 351.826H413.752C417.413 351.735 421.061 352.299 424.524 353.491C427.271 354.444 429.629 356.273 431.236 358.696C432.885 361.532 433.68 364.785 433.525 368.062V369.831C433.645 372.179 433.245 374.525 432.356 376.701C431.466 378.878 430.107 380.831 428.376 382.422C423.854 385.819 418.247 387.447 412.61 387L396.272 387ZM401.581 333.824H407.615C409.678 333.932 411.735 333.52 413.597 332.626C414.924 331.937 415.958 330.792 416.51 329.401C417.654 326.078 417.544 322.45 416.2 319.202C415.542 317.852 414.44 316.769 413.079 316.134C411.518 315.467 409.83 315.147 408.133 315.195H402.307C399.758 315.018 397.23 315.757 395.179 317.279C394.28 318.208 393.595 319.323 393.173 320.546C392.751 321.768 392.601 323.068 392.735 324.354C392.615 325.651 392.755 326.959 393.148 328.201C393.541 329.443 394.179 330.594 395.024 331.586C395.914 332.374 396.952 332.978 398.078 333.362C399.204 333.747 400.394 333.903 401.581 333.824Z" fill="black"/>
<path d="M447.781 296.674C446.46 296.674 445.8 296.049 445.802 294.801V285.33C445.802 283.944 446.461 283.25 447.781 283.25H457.561C457.828 283.231 458.096 283.278 458.34 283.387C458.585 283.496 458.799 283.663 458.964 283.874C459.279 284.293 459.444 284.806 459.434 285.33V294.801C459.47 295.055 459.447 295.315 459.365 295.558C459.284 295.802 459.147 296.024 458.965 296.205C458.784 296.387 458.562 296.524 458.318 296.605C458.075 296.687 457.815 296.71 457.561 296.674H447.781ZM446.116 352.284V305.52H459.018V361.296H455.129C453.945 361.296 452.773 361.063 451.68 360.61C450.586 360.158 449.593 359.494 448.756 358.657C447.919 357.82 447.255 356.827 446.802 355.733C446.349 354.64 446.116 353.468 446.116 352.284Z" fill="black"/>
<path d="M504.647 305.103C507.11 305.311 509.452 305.606 511.673 305.989C513.638 306.312 515.584 306.746 517.5 307.288V314.573H501.579C498.788 314.475 496.008 314.953 493.41 315.977C492.296 316.513 491.302 317.268 490.488 318.199C489.674 319.129 489.056 320.214 488.673 321.39C487.47 325.17 486.943 329.132 487.114 333.096C486.949 337.144 487.476 341.191 488.673 345.063C489.436 347.504 491.115 349.555 493.357 350.785C495.906 351.923 498.683 352.458 501.472 352.348H516.667V353.569C516.661 355.389 516.002 357.147 514.811 358.523C513.619 359.9 511.974 360.804 510.173 361.071C509.146 361.225 508.118 361.353 507.091 361.453C503.902 361.765 500.746 361.921 497.625 361.92C494.3 361.968 490.986 361.531 487.787 360.621C484.98 359.796 482.447 358.233 480.451 356.094C478.23 353.552 476.643 350.521 475.82 347.248C474.64 342.626 474.098 337.864 474.208 333.095C474.092 328.422 474.671 323.758 475.926 319.255C476.824 316.015 478.483 313.036 480.765 310.566C482.795 308.48 485.318 306.941 488.102 306.092C491.089 305.199 494.193 304.76 497.311 304.791C499.74 304.791 502.185 304.895 504.647 305.103Z" fill="black"/>
</svg>
